PathFileType	4	(X/Y/Z)	OpenSim_Sub09_CSBaseline_Gyro.trc
DataRate	CameraRate	NumFrames	NumMarkers	Units	OrigDataRate	OrigDataStartFrame	OrigNumFrames
100	100	33	8	m	100	2191	5840
Frame#	Time	torso_imu_offset_imu	pelvis_imu_offset_imu	tibia_r_imu_offset_imu	femur_r_imu_offset_imu	tibia_l_imu_offset_imu	femur_l_imu_offset_imu	toes_r_imu_offset_imu	toes_l_imu_offset_imu
				X1	Y1	Z1	X2	Y2	Z2	X3	Y3	Z3	X4	Y4	Z4	X5	Y5	Z5	X6	Y6	Z6	X7	Y7	Z7	X8		Y8	Z8	

2191	21.90000000	-0.09482674	0.36990322	0.10443649	-0.18069265	-0.62082244	-0.14500657	3.67362652	0.20307443	-1.30146239	-0.31373254	-0.84173766	0.69465500	0.19151317	0.04753160	2.43199418	0.28244429	0.95854058	-0.72717724	-0.09636296	-1.72169395	-0.34304818	-0.50985202	-4.02088224	1.90451473
2192	21.91000000	-0.03756775	0.34990157	0.05071930	-0.00989479	-0.57515452	-0.32103979	3.21757073	0.03800743	-0.97955902	0.65980576	-0.41972014	0.23208690	0.37085816	-0.01981264	2.50228867	0.26345742	1.00965119	-0.80211551	0.36976590	-0.95899430	-0.39688029	-0.66821780	-4.33048392	2.20957601
2193	21.92000000	0.04633651	0.32202415	0.02639486	0.14226999	-0.43902109	-0.37630088	2.59365943	-0.41532176	-0.89990135	0.33333228	-0.46964937	-0.14387615	0.61127036	-0.07725062	2.49936633	0.20662320	0.96012631	-0.93228483	0.44350695	-0.66076214	-0.27170616	-0.96669299	-4.62565731	2.58950816
2194	21.93000000	0.14277197	0.31348076	0.00687518	0.25462456	-0.30490504	-0.36259560	1.58749533	-0.86269869	-1.13107766	-0.28561943	-0.79145919	-0.47793667	0.79951191	-0.06263263	2.47595476	0.22978926	0.86173079	-1.07612716	0.53271402	-0.67697259	-0.23342766	-1.03124769	-4.95524367	2.85251977
2195	21.94000000	0.21915042	0.32266000	-0.00922297	0.37415262	-0.19912760	-0.30347079	0.25612921	-1.16496903	-1.17353943	-0.44504508	-0.81631454	-0.82147441	0.86510609	-0.07658306	2.43137634	0.18891435	0.72498318	-1.28591849	0.51206831	-0.54980169	-0.20175131	-1.00358250	-4.96640931	2.96174109
2196	21.95000000	0.26833738	0.32579202	-0.01174491	0.48343627	-0.12266725	-0.20688689	-0.48814502	-1.24800599	-0.93686216	-0.38943290	-0.76715478	-1.16591162	0.90946499	-0.08627221	2.38452562	0.16108179	0.58152708	-1.49411271	0.37781142	-0.34174280	-0.12338008	-1.06123094	-4.82341591	3.02322129
2197	21.96000000	0.27873863	0.31268081	-0.00638175	0.56369299	-0.07967284	-0.11130880	-0.71749144	-1.10104209	-0.71518510	-0.49192474	-0.68997562	-1.36963556	0.86820089	-0.14497632	2.33213788	0.19185338	0.42940010	-1.67738672	0.26098199	-0.23451942	-0.06085601	-0.95535234	-4.69187656	3.04392819
2198	21.97000000	0.25392543	0.29286511	0.00825054	0.62416494	-0.06187087	-0.04039170	-0.97664310	-1.00772745	-0.61185357	-0.42589136	-0.58479035	-1.35189811	0.77141478	-0.31053120	2.16274453	0.24524412	0.27068355	-1.80902506	0.15894587	-0.16947314	-0.01687092	-0.47922441	-4.46671369	2.91125455
2199	21.98000000	0.24395616	0.25300597	0.03577866	0.65650440	-0.05878728	0.00744086	-1.17098617	-0.92698614	-0.56561355	-0.12008207	-0.44989048	-1.27422450	0.60343403	-0.43363507	1.92063497	0.31030137	0.12212692	-1.89625389	0.07136253	-0.10432036	0.02043736	0.00809733	-3.99022983	2.70404176
2200	21.99000000	0.24012156	0.20646876	0.07687341	0.65618349	-0.06915563	0.02375306	-1.29269935	-0.83376051	-0.54635297	0.10726391	-0.35712971	-1.19709184	0.51518872	-0.50504270	1.70328860	0.39350544	-0.03290159	-1.93190257	0.02666385	-0.07295578	0.03901820	0.55772655	-3.42571582	2.46023159
2201	22	0.22294077	0.14824662	0.11732801	0.63398675	-0.07017605	0.00590228	-1.50315221	-0.77306919	-0.51788498	0.19837369	-0.30331788	-1.14152154	0.60614996	-0.52666925	1.52788756	0.48098670	-0.13347484	-1.92574969	0.02570739	-0.06380312	0.03502612	0.72304493	-2.72619999	2.20455163
2202	22.01000000	0.21481522	0.09317479	0.15246578	0.59796252	-0.06701669	-0.04060633	-1.66002114	-0.72488986	-0.51820715	0.23755524	-0.25499115	-1.09901944	0.77792392	-0.41852605	1.33304526	0.56355756	-0.16378709	-1.88973613	0.02850561	-0.05750733	0.02932988	0.23642569	-2.07140403	2.10999494
2203	22.02000000	0.21205950	0.04967520	0.19617041	0.54961277	-0.05876913	-0.10414942	-1.56874558	-0.66498539	-0.53496564	0.20978752	-0.23841468	-1.06194815	0.93143973	-0.23561306	1.17143757	0.61056528	-0.14981753	-1.78421355	0.04039272	-0.05940024	0.01354872	0.24015439	-0.30195207	1.00311433
2204	22.03000000	0.22704748	0.01766757	0.25849595	0.49131129	-0.02985138	-0.17866613	-1.18856831	-0.56715093	-0.54950318	0.12332974	-0.22291452	-1.01053832	1.33190498	-0.23802756	1.00515170	0.61429892	-0.12346380	-1.66902206	0.07164338	-0.04762129	-0.00761586	0.65880299	1.30115238	0.00117709
2205	22.04000000	0.24157862	-0.02996076	0.19502521	0.42771076	-0.00563379	-0.25562221	-0.67507189	-0.40938726	-0.52147911	0.06367926	-0.18801288	-0.96439310	1.71043493	-0.48401635	0.70646723	0.55032335	-0.15637880	-1.50950891	0.10571342	-0.07719283	-0.03817848	0.75938583	2.03159091	-0.46384651
2206	22.05000000	0.23882985	-0.06813721	0.19461633	0.37764409	0.01270387	-0.32098607	-0.21703291	-0.12467948	-0.45513299	0.02501980	-0.16823295	-0.91172479	1.97472074	-0.83675335	0.31225995	0.36239289	-0.22008778	-1.42445004	0.14620989	-0.12006897	-0.06145344	0.22201496	2.04786225	-0.60960401
2207	22.06000000	0.25860071	-0.09371778	0.18372890	0.33320067	0.01768228	-0.38177080	0.29504222	0.22399437	-0.30444432	-0.04295195	-0.20250265	-0.88523371	2.21786097	-1.02104962	-0.09477279	0.16134205	-0.29901983	-1.35639496	0.20722458	-0.13498741	-0.08668784	-0.03904932	1.81321500	-0.62352225
2208	22.07000000	0.29834290	-0.10380248	0.17894151	0.29463055	0.02069661	-0.42596611	0.75493227	0.33572879	-0.18933168	-0.12768549	-0.24699406	-0.90163262	2.44751688	-0.94322338	-0.52549328	-0.03881051	-0.37697733	-1.28678327	0.26327651	-0.13112230	-0.10716113	0.22859563	1.64847203	-0.65803876
2209	22.08000000	0.35083262	-0.09280849	0.17561525	0.27511799	0.00940797	-0.46451115	0.76028803	0.23349772	-0.23265867	-0.21089118	-0.26526926	-0.92330798	2.42672612	-0.75153486	-0.95297918	-0.23529037	-0.42684163	-1.22824545	0.29463170	-0.10152207	-0.11293922	0.73878163	1.58044120	-0.78154836
2210	22.09000000	0.39215122	-0.07361027	0.16432653	0.25959946	-0.00232664	-0.49670351	0.36482921	0.01926357	-0.35754855	-0.27991150	-0.26795494	-0.93318388	1.93476565	-0.55120073	-1.29009801	-0.42480860	-0.41183803	-1.17324386	0.30753800	-0.08345933	-0.11196139	1.21409251	1.60280074	-0.94220421
2211	22.10000000	0.40983547	-0.03974819	0.15058841	0.23678512	-0.01253042	-0.50890361	-0.16784300	-0.13152350	-0.38515071	-0.32524916	-0.25271990	-0.94764393	1.13306897	-0.44592519	-1.54858584	-0.58162867	-0.35598631	-1.12728169	0.29432333	-0.07317970	-0.10646179	1.44315098	1.71352881	-1.07398679
2212	22.11000000	0.42568017	-0.02213354	0.13674480	0.20077697	-0.02058903	-0.50321134	-0.68728340	-0.09267084	-0.32128910	-0.30981411	-0.23589928	-0.96023324	0.28636226	-0.42871641	-1.76773021	-0.68071960	-0.29453748	-1.08419839	0.29291158	-0.06679747	-0.11477754	1.39169720	1.87346565	-1.17726922
2213	22.12000000	0.43666999	-0.02574337	0.12545553	0.16281347	-0.02302466	-0.49176384	-1.03840626	-0.03982281	-0.27431819	-0.28256183	-0.19707169	-0.96016169	-0.39308292	-0.45301323	-1.99368767	-0.74418153	-0.20157143	-1.01911613	0.28465851	-0.07316503	-0.12873470	1.22859954	2.06067047	-1.29412949
2214	22.13000000	0.43121955	-0.03428034	0.12176099	0.12823133	-0.00827812	-0.46031316	-1.20559243	-0.10969926	-0.23156389	-0.26179083	-0.16767144	-0.93832479	-0.80926669	-0.46451298	-2.23709672	-0.77352064	-0.10169405	-0.92747447	0.27880405	-0.08375497	-0.13826151	1.11394076	2.27365975	-1.45656388
2215	22.14000000	0.41937836	-0.04277298	0.11677973	0.09907459	0.01234009	-0.41870497	-1.26119692	-0.18594611	-0.22670178	-0.27312210	-0.16936934	-0.90658830	-0.90534264	-0.43796584	-2.51679196	-0.77785218	-0.01225589	-0.82502073	0.24562367	-0.07512836	-0.14352516	1.14480608	2.50475504	-1.65106602
2216	22.15000000	0.39394613	-0.04966374	0.12044072	0.08637897	0.03706153	-0.37840790	-1.16711208	-0.17460368	-0.25631189	-0.28020660	-0.16574692	-0.86063562	-0.78972473	-0.40107693	-2.84352898	-0.73480155	0.04457851	-0.71812100	0.23079058	-0.09179013	-0.14986127	1.29523834	2.72331548	-1.85137816
2217	22.16000000	0.36111764	-0.05374187	0.12054355	0.08038069	0.06238801	-0.32190924	-0.88135295	-0.12928063	-0.26650563	-0.27049020	-0.15485680	-0.83360256	-0.60744808	-0.34988993	-3.15928548	-0.64254019	0.09908093	-0.61472173	0.21599530	-0.08431809	-0.14938579	1.46490250	2.93736425	-2.02261220
2218	22.17000000	0.32378830	-0.05755998	0.12265605	0.08151005	0.07145612	-0.27532374	-0.55170823	-0.10358393	-0.28021587	-0.24416967	-0.13523152	-0.81802227	-0.47227339	-0.28303252	-3.42687895	-0.59149382	0.16294930	-0.55320507	0.19033879	-0.07625802	-0.14182840	1.59994333	3.13897812	-2.14281310
2219	22.18000000	0.28487576	-0.06896572	0.12635456	0.08253207	0.06699054	-0.23468260	-0.26950801	-0.10329762	-0.36131720	-0.20963445	-0.10425965	-0.81754593	-0.41044255	-0.19248839	-3.62919898	-0.55776134	0.15290040	-0.44577178	0.17043952	-0.07566311	-0.13645323	1.70591851	3.31237958	-2.22188963
2220	22.19000000	0.24138293	-0.08261811	0.12058925	0.09554812	0.07339164	-0.19300252	-0.06771275	-0.07263030	-0.38406334	-0.16051902	-0.06340512	-0.80112355	-0.39445187	-0.10033746	-3.76900845	-0.49251687	0.13718832	-0.36505484	0.14889792	-0.07477369	-0.13119252	1.79106151	3.43609322	-2.25097912
2221	22.20000000	0.19353661	-0.09159902	0.12165199	0.10479900	0.07313513	-0.16467116	-0.01877267	-0.04410391	-0.38485306	-0.09527088	-0.04934408	-0.79374594	-0.37269924	0.00166435	-3.87544808	-0.46024257	0.12980587	-0.28338553	0.14366919	-0.06052552	-0.13133480	1.87394828	3.52240612	-2.22218821
2222	22.21000000	0.17227669	-0.10353442	0.11351237	0.12121145	0.07853863	-0.14235971	-0.12800458	-0.05741303	-0.42032139	0.02490628	-0.05883867	-0.80002849	-0.26810662	0.06914950	-3.95540487	-0.44454786	0.15321363	-0.20949103	0.14914335	-0.04462288	-0.14194230	1.95676571	3.56982373	-2.15961817
2223	22.22000000	0.15225634	-0.11244751	0.09453390	0.13669671	0.07904921	-0.12128139	-0.27815165	-0.05882410	-0.48762850	0.14883990	-0.09074405	-0.80428427	-0.04486495	0.06559807	-3.99470365	-0.40259497	0.20808451	-0.16733193	0.16070628	-0.03432519	-0.15092169	2.01510530	3.57029166	-2.10229550
